# xmcd
#
# Track frame offsets: 
#        150
#        19970
#        40315
#        68101
#        90448
#        116300
#        151327
#        168137
#        188754
#        210599
#
# Disc length: 3315 seconds
#
# Revision: 4
# Processed by: cddbd v1.5.2PL0 Copyright (c) Steve Scherf et al.
# Submitted via: ExactAudioCopy v0.99pb3
#
DISCID=750cf10a
DTITLE=Laika - Good Looking Blues
DYEAR=2000
DGENRE=Trip-Hop
TTITLE0=Black Cat Bone
TTITLE1=Moccasin
TTITLE2=T. Street
TTITLE3=Uneasy
TTITLE4=Good Looking Blues
TTITLE5=Widows' Weed
TTITLE6=Glory Cloud
TTITLE7=Go Fish
TTITLE8=Badtimes
TTITLE9=Knowing Too Little
EXTD=
EXTT0=
EXTT1=
EXTT2=
EXTT3=
EXTT4=
EXTT5=
EXTT6=
EXTT7=
EXTT8=
EXTT9=
PLAYORDER=
